<?xml version="1.0" encoding="utf-8"?>
<!-- Generator: Adobe Illustrator 18.1.1, SVG Export Plug-In . SVG Version: 6.00 Build 0)  -->
<!DOCTYPE svg PUBLIC "-//W3C//DTD SVG 1.1//EN" "http://www.w3.org/Graphics/SVG/1.1/DTD/svg11.dtd">
<svg version="1.1" id="Layer_1" xmlns="http://www.w3.org/2000/svg" xmlns:xlink="http://www.w3.org/1999/xlink" x="0px" y="0px"
	 width="382.7px" height="127.6px" viewBox="0 0 382.7 127.6" enable-background="new 0 0 382.7 127.6" xml:space="preserve">
<g>
	<path fill-rule="evenodd" clip-rule="evenodd" fill="#DD052B" d="M38.8,120.3h10.8c5.7-0.1,10.3-4.7,10.4-10.4h0
		c0.8-19.5,4.9-35.9,11.7-49.5l-20.4,0C43.1,76.6,38.4,96.5,38.8,120.3L38.8,120.3z M66.8,38h20.5c15.9-16.6,37.6-26.5,62.5-31.2
		C118.7,5.2,88,15.3,66.8,38L66.8,38z M117.6,7C92.3,6.7,63.7,16.9,43.3,38h18.8C77.7,20.4,98,10.9,117.6,7L117.6,7z"/>
	<path fill-rule="evenodd" clip-rule="evenodd" fill="#1E1B58" d="M40.3,41.3C29.9,53,22,67.9,18.2,86h20
		c4.1-18.3,11.6-33.1,21.1-44.8H40.3L40.3,41.3z M63.9,41.3c-4.1,4.8-7.8,10.1-11,15.9h20.4c3.2-5.8,6.9-11.1,11.1-15.9H63.9
		L63.9,41.3z M35.7,41.2H16.7c0,0-5.5,6.2-12.3,15.9h20.4C28.7,50.1,32.8,44.7,35.7,41.2L35.7,41.2z"/>
	<path fill-rule="evenodd" clip-rule="evenodd" fill="#1E1B58" d="M87.3,60.4h14.8c2.9,0,9.9,0,9.9,6.7c0,3.5-2.3,4.6-3.9,5.4
		c1.6,0.7,4.8,2.1,4.8,6.3c0,6.9-7.2,7.2-12.5,7.2l-13.1,0V60.4L87.3,60.4z M90.4,71.3h10.9c3.6,0,7.7-0.6,7.7-4.2
		c0-4.1-4.2-4.1-8.7-4.1h-9.8V71.3L90.4,71.3z M90.4,83.3h12c3.7,0,7.4-0.6,7.4-4.5c0-3.6-2.8-4.8-7-4.8H90.4V83.3L90.4,83.3z"/>
	<path fill-rule="evenodd" clip-rule="evenodd" fill="#1E1B58" d="M120.4,60.4h14.8c4.1,0,10.1,0.9,10.1,7.2c0,5.4-5,6.9-8.1,7.1
		l8.5,11.4h-3.8l-8.2-11.4h-10.1V86h-3.1V60.4L120.4,60.4z M123.5,71.9h11c4.5,0,7.8-0.6,7.8-4.4c0-3.7-3.3-4.4-7.8-4.4h-11V71.9
		L123.5,71.9z"/>
	<polygon fill-rule="evenodd" clip-rule="evenodd" fill="#1E1B58" points="153.5,60.4 156.6,60.4 156.6,86 153.5,86 153.5,60.4 	"/>
	<polygon fill-rule="evenodd" clip-rule="evenodd" fill="#1E1B58" points="175.5,63.2 163.1,63.2 163.1,60.4 191,60.4 191,63.2 
		178.6,63.2 178.6,86 175.5,86 175.5,63.2 	"/>
	<polygon fill-rule="evenodd" clip-rule="evenodd" fill="#1E1B58" points="197.2,60.4 200.3,60.4 200.3,86 197.2,86 197.2,60.4 	"/>
	<path fill-rule="evenodd" clip-rule="evenodd" fill="#1E1B58" d="M209.1,78.7c1.5,2,3.9,5.2,11.6,5.2c3.9,0,9.3-1.1,9.3-5.1
		c0-7.8-22.3-1-22.3-11.4c0-5.5,5-7.7,12-7.7c6.8,0,10.9,2.8,12.7,5.3l-2.3,1.8c-1.1-1.2-3.5-4.5-10.5-4.5c-5.1,0-8.8,1.3-8.8,4.6
		c0,7.8,22.3,0.4,22.3,11.8c0,4.3-4.2,7.9-12.9,7.9c-8.4,0-11.5-3.5-13.7-5.9L209.1,78.7L209.1,78.7z"/>
	<polygon fill-rule="evenodd" clip-rule="evenodd" fill="#1E1B58" points="240.5,60.4 243.6,60.4 243.6,71.3 263.7,71.3 263.7,60.4 
		266.8,60.4 266.8,86 263.7,86 263.7,74 243.6,74 243.6,86 240.5,86 240.5,60.4 	"/>
	<polygon fill-rule="evenodd" clip-rule="evenodd" fill="#1E1B58" points="97.5,98.9 86.1,98.9 86.1,94.6 114,94.6 114,98.9 
		102.5,98.9 102.5,120.3 97.5,120.3 97.5,98.9 	"/>
	<path fill-rule="evenodd" clip-rule="evenodd" fill="#1E1B58" d="M124.8,94.6h5.7l12.4,25.6l-5.3,0l-2.7-5.9h-14.8l-2.7,5.9h-5.3
		L124.8,94.6L124.8,94.6z M133,110.1l-5.4-11.4l-5.4,11.4H133L133,110.1z"/>
	<polygon fill-rule="evenodd" clip-rule="evenodd" fill="#1E1B58" points="147.9,94.6 170.9,94.6 170.9,98.9 152.9,98.9 
		152.9,104.9 168.3,104.9 168.3,109.2 152.9,109.2 152.9,116 171.3,116 171.3,120.3 147.9,120.3 147.9,94.6 	"/>
	<polygon fill-rule="evenodd" clip-rule="evenodd" fill="#1E1B58" points="177.4,94.6 182.4,94.6 182.4,106.6 196.6,94.6 
		203.7,94.6 191.5,104.8 205,120.3 198.4,120.3 187.9,107.8 182.4,112.3 182.4,120.3 177.4,120.3 177.4,94.6 	"/>
	<polygon fill-rule="evenodd" clip-rule="evenodd" fill="#1E1B58" points="208.5,94.6 213.5,94.6 218.4,112.3 218.5,112.3 
		223.4,94.6 228.2,94.6 233.2,112.2 233.2,112.2 238.1,94.6 243,94.6 235.6,120.3 230.8,120.3 225.9,102.1 225.8,102.1 220.9,120.3 
		216,120.3 208.5,94.6 	"/>
	<path fill-rule="evenodd" clip-rule="evenodd" fill="#1E1B58" d="M261.2,94c11.3,0,15.3,6.6,15.3,13.6c0,5.3-3.1,13.3-15.3,13.3
		S246,113,246,107.7C246,100.6,250,94,261.2,94L261.2,94z M271.5,107.4c0-6.2-4.4-9.1-10.3-9.1c-5.9,0-10.3,2.9-10.3,9.1
		c0,7.3,5.5,9.2,10.3,9.2C266,116.6,271.5,114.6,271.5,107.4L271.5,107.4z"/>
	<polygon fill-rule="evenodd" clip-rule="evenodd" fill="#1E1B58" points="282.1,94.6 287.4,94.6 304.6,113.2 304.6,94.6 
		309.3,94.6 309.3,120.3 304.8,120.3 286.9,101.1 286.9,120.3 282.1,120.3 282.1,94.6 282.1,94.6 	"/>
	<path fill-rule="evenodd" clip-rule="evenodd" fill="#1E1B58" d="M315.8,94.6h12.3c8.1,0,14.6,3.4,14.6,12.7c0,8.7-5.9,13-14.4,13
		l-12.5,0V94.6L315.8,94.6z M325.8,116c8.5,0,11.8-2.6,11.8-8.6c0-6.3-3.5-8.4-11.8-8.4h-5.1v17H325.8L325.8,116z"/>
	<path fill-rule="evenodd" clip-rule="evenodd" fill="#1E1B58" d="M363,94c11.3,0,15.3,6.6,15.3,13.6c0,5.3-3.1,13.3-15.3,13.3
		c-12.1,0-15.3-7.9-15.3-13.3C347.7,100.6,351.7,94,363,94L363,94z M373.3,107.4c0-6.2-4.4-9.1-10.3-9.1c-5.9,0-10.3,2.9-10.3,9.1
		c0,7.3,5.5,9.2,10.3,9.2C367.8,116.6,373.3,114.6,373.3,107.4L373.3,107.4z"/>
</g>
</svg>
